<svg xmlns="http://www.w3.org/2000/svg" xmlns:xlink="http://www.w3.org/1999/xlink" version="1.1" width="256" height="256" viewBox="0 0 256 256" xml:space="preserve">

<defs>
</defs>
<g style="stroke: none; stroke-width: 0; stroke-dasharray: none; stroke-linecap: butt; stroke-linejoin: miter; stroke-miterlimit: 10; fill: none; fill-rule: nonzero; opacity: 1;" transform="translate(1.4065934065934016 1.4065934065934016) scale(2.81 2.81)" >
	<path d="M 25.742 58.087 c -11.287 0 -20.469 -9.182 -20.469 -20.47 c 0 -14.369 11.523 -27.654 19.149 -36.444 l 0.832 -0.96 c 0.245 -0.284 0.731 -0.284 0.976 0 l 0.832 0.959 c 7.625 8.791 19.15 22.075 19.15 36.445 C 46.211 48.905 37.029 58.087 25.742 58.087 z" style="stroke: none; stroke-width: 1; stroke-dasharray: none; stroke-linecap: butt; stroke-linejoin: miter; stroke-miterlimit: 10; fill: rgb(64,180,197); fill-rule: nonzero; opacity: 1;" transform=" matrix(1 0 0 1 0 0) " stroke-linecap="round" />
	<path d="M 31.513 56.375 c -12.334 0 -22.368 -10.034 -22.368 -22.368 c 0 -10.704 5.853 -20.856 12.218 -29.278 c -7.305 8.623 -16.09 20.342 -16.09 32.889 c 0 11.287 9.182 20.47 20.469 20.47 c 3.066 0 5.974 -0.682 8.588 -1.895 C 33.406 56.308 32.467 56.375 31.513 56.375 z" style="stroke: none; stroke-width: 1; stroke-dasharray: none; stroke-linecap: butt; stroke-linejoin: miter; stroke-miterlimit: 10; fill: rgb(51,151,166); fill-rule: nonzero; opacity: 1;" transform=" matrix(1 0 0 1 0 0) " stroke-linecap="round" />
	<path d="M 70.787 73.619 c -7.687 0 -13.94 -6.254 -13.94 -13.941 c 0 -9.786 7.848 -18.833 13.041 -24.82 l 0.567 -0.654 c 0.167 -0.193 0.498 -0.193 0.665 0 l 0.566 0.653 c 5.193 5.987 13.042 15.034 13.042 24.821 C 84.728 67.365 78.474 73.619 70.787 73.619 z" style="stroke: none; stroke-width: 1; stroke-dasharray: none; stroke-linecap: butt; stroke-linejoin: miter; stroke-miterlimit: 10; fill: rgb(64,180,197); fill-rule: nonzero; opacity: 1;" transform=" matrix(1 0 0 1 0 0) " stroke-linecap="round" />
	<path d="M 74.717 72.453 c -8.4 0 -15.233 -6.834 -15.233 -15.234 c 0 -7.29 3.986 -14.204 8.321 -19.94 c -4.975 5.873 -10.958 13.854 -10.958 22.399 c 0 7.687 6.254 13.941 13.94 13.941 c 2.088 0 4.069 -0.465 5.849 -1.291 C 76.007 72.408 75.368 72.453 74.717 72.453 z" style="stroke: none; stroke-width: 1; stroke-dasharray: none; stroke-linecap: butt; stroke-linejoin: miter; stroke-miterlimit: 10; fill: rgb(51,151,166); fill-rule: nonzero; opacity: 1;" transform=" matrix(1 0 0 1 0 0) " stroke-linecap="round" />
	<path d="M 45.408 90 c -5.531 0 -10.03 -4.499 -10.03 -10.03 c 0 -7.041 5.646 -13.55 9.383 -17.858 l 0.408 -0.471 c 0.12 -0.139 0.358 -0.139 0.478 0 l 0.408 0.47 c 3.736 4.307 9.383 10.817 9.383 17.858 C 55.438 85.501 50.939 90 45.408 90 z" style="stroke: none; stroke-width: 1; stroke-dasharray: none; stroke-linecap: butt; stroke-linejoin: miter; stroke-miterlimit: 10; fill: rgb(64,180,197); fill-rule: nonzero; opacity: 1;" transform=" matrix(1 0 0 1 0 0) " stroke-linecap="round" />
	<path d="M 48.236 89.161 c -6.044 0 -10.96 -4.917 -10.96 -10.961 c 0 -5.245 2.868 -10.22 5.987 -14.347 c -3.579 4.225 -7.884 9.968 -7.884 16.116 c 0 5.531 4.499 10.03 10.03 10.03 c 1.502 0 2.927 -0.334 4.208 -0.929 C 49.163 89.128 48.703 89.161 48.236 89.161 z" style="stroke: none; stroke-width: 1; stroke-dasharray: none; stroke-linecap: butt; stroke-linejoin: miter; stroke-miterlimit: 10; fill: rgb(51,151,166); fill-rule: nonzero; opacity: 1;" transform=" matrix(1 0 0 1 0 0) " stroke-linecap="round" />
</g>
</svg>